<svg xmlns="http://www.w3.org/2000/svg" version="1.1" xmlns:xlink="http://www.w3.org/1999/xlink" xmlns:svgjs="http://svgjs.dev/svgjs" viewBox="0 0 9.2894294362579 9.2894294362579"><g transform="matrix(1,0,0,1,2.8441617448003953,3.0435330290158245)"><g><path d=" M 0.6590960525500559 -1.6972194752353256 L 0.8310698700351167 -1.2224037150718545 Q 0.8392428831433176 -1.1998382135987389 0.8475379923672366 -1.1725308672801518 Q 0.8558331015911554 -1.1452235209615647 0.8547740935253124 -1.1187824827460089 Q 0.8537150854594694 -1.0923414445304531 0.8400593327964048 -1.0698465469044314 Q 0.82640358013334 -1.0473516492784094 0.7906748694675739 -1.0344110451904247 Q 0.7596473049420401 -1.0231731521666485 0.7353458699849404 -1.0271342453271095 Q 0.7110444350278406 -1.0310953384875705 0.6931618098461091 -1.043762686931886 Q 0.6752791846643774 -1.0564300353762013 0.6631268085468668 -1.0738317523805245 Q 0.6509744324293563 -1.091233469384848 0.6455257570238889 -1.1062771370335915 L 0.5637258141838454 -1.0766499645163634 Q 0.5918280230287496 -1.004933398382468 0.6512617989143321 -0.9817897970209177 Q 0.7106955747999146 -0.9586461956593675 0.8009575806923765 -0.9913382480921712 Q 0.8658333974275836 -1.0148356607782487 0.8964614511861877 -1.0477320484668697 Q 0.9270895049447918 -1.0806284361554908 0.9346968951871844 -1.116886229989368 Q 0.942304285429577 -1.1531440238232453 0.9344053696946664 -1.1896352163251736 Q 0.9265064539597556 -1.2261264088271018 0.9156091031488212 -1.2562137441245889 L 0.7446569123022854 -1.728208816603921 L 0.6590960525500559 -1.6972194752353256 M 1.2617613048564489 -1.8622272718618882 L 1.193889749688842 -1.8580497128700233 L 1.2368940334286271 -1.159371939085836 L 1.2808109220664905 -1.1620750654923369 L 1.2457317134730372 -1.7319965066791525 L 1.249724157894661 -1.73224224544338 L 1.5939569143512449 -1.1693267905282545 L 1.6119229142485525 -1.1704326149672777 L 1.891755337434935 -1.7677523073713013 L 1.8957477818565587 -1.7679980461355287 L 1.9305812516857848 -1.2020690493703368 L 2.021409362277729 -1.207659606256509 L 1.9784050785379441 -1.9063373800406964 L 1.909535412264931 -1.9020983863577747 L 1.6230696634385513 -1.2823287721063648 L 1.6190772190169276 -1.2820830333421374 L 1.2617613048564489 -1.8622272718618882 M 2.3194956833794294 -1.5191382530731603 Q 2.3036960521278744 -1.4654132900455799 2.306406947138933 -1.398427089614155 Q 2.309117842149991 -1.33144088918273 2.338013703072933 -1.2666564063066432 Q 2.366909563995875 -1.2018719234305564 2.4250093044517325 -1.147782459031637 Q 2.4831090449075903 -1.0936929946327174 2.5780871045456344 -1.0657615036701475 Q 2.6423651853107755 -1.046858373422752 2.6993063353224507 -1.0473116231860615 Q 2.7562474853341254 -1.0477648729493714 2.8058800847402554 -1.062354426615972 Q 2.8555126841463854 -1.0769439802825724 2.896510636960034 -1.1029327829693034 Q 2.9375085897736826 -1.1289215856560346 2.9686022827692784 -1.1619924528338943 Q 2.9996959757648742 -1.195063320011754 3.0213369934988625 -1.2314352370829946 Q 3.042978011232851 -1.2678071541542353 3.0534170533097704 -1.3033040047260296 Q 3.0692166845613253 -1.35702896775361 3.0650667280405997 -1.4244383725935588 Q 3.0609167715198744 -1.4918477774335073 3.030102161917376 -1.5571965328542925 Q 2.999287552314877 -1.6225452882750777 2.938789376009574 -1.67734009335487 Q 2.878291199704271 -1.7321348984346627 2.7823537657264485 -1.7603485256695817 Q 2.687375706088404 -1.7882800166321515 2.6093853584319286 -1.7747335900767063 Q 2.5313950107754533 -1.761187163521261 2.472169500574973 -1.722838904871189 Q 2.4129439903744934 -1.6844906462211164 2.374260720638913 -1.629156618330818 Q 2.335577450903333 -1.573822590440519 2.3194956833794294 -1.5191382530731603 M 2.413514368677695 -1.4914888983829397 Q 2.4332639077421385 -1.5586451021674153 2.470395427979798 -1.608702571188934 Q 2.5075269482174574 -1.6587600402104523 2.555353209397807 -1.688473652268043 Q 2.6031794705781564 -1.718187264325634 2.6587377643070518 -1.7263436114206134 Q 2.714296058035947 -1.7344999585155931 2.7718585184226407 -1.7175717821746415 Q 2.8284616044695556 -1.7009257421060393 2.8721985549077065 -1.6635682908229186 Q 2.9159355053458573 -1.6262108395397978 2.941981068328431 -1.5747727345113192 Q 2.9680266313110053 -1.5233346294828407 2.9735872691934766 -1.4607220963417835 Q 2.979147907075948 -1.3981095632007259 2.9593983680115046 -1.3309533594162501 Q 2.9396488289470613 -1.2637971556317744 2.9010782471997345 -1.2141628910187798 Q 2.8625076654524078 -1.164528626405785 2.812762655592502 -1.1353792868928927 Q 2.763017645732596 -1.1062299473800004 2.7060202904940334 -1.0984968046935446 Q 2.6490229352554704 -1.0907636620070889 2.5924198492085555 -1.107409702075691 Q 2.534857388821862 -1.1243378784166425 2.492559499893378 -1.1612721252912395 Q 2.450261610964895 -1.1982063721658365 2.4261347966618776 -1.2490802046496166 Q 2.4020079823588603 -1.2999540371333966 2.397886405986056 -1.3621433658659303 Q 2.393764829613252 -1.424332694598464 2.413514368677695 -1.4914888983829397" fill="#212245" fill-rule="nonzero"></path></g><g><path d=" M -0.8719543195234325 0.28989482235865105 Q -0.8113704803641268 0.3605832120186184 -0.7960625474243789 0.4495771286034737 Q -0.7807546144846311 0.538571045188329 -0.814368941466244 0.6284936620406716 Q -0.8553364024750846 0.7380868513294643 -0.9365603768320604 0.7968675113262466 Q -1.0177843511890363 0.8556481713230288 -1.1256961087659936 0.8558774673151761 L -1.096983871135866 0.7790685654204668 Q -1.0199741252404002 0.7758283436509275 -0.960972189995995 0.7322276368055674 Q -0.90197025475159 0.6886269299602074 -0.8715072709245033 0.6071345584377719 Q -0.8445457794913347 0.5350091261707887 -0.8567325825883676 0.46479707713165186 Q -0.8689193856854003 0.39458502809251506 -0.9198910022809907 0.3381656670394853 Q -0.9708626188765812 0.28174630598645556 -1.0542283782501072 0.2505830236805854 Q -1.1375941376236332 0.21941974137471515 -1.212607854013877 0.22874402972954783 Q -1.2876215704041207 0.23806831808438048 -1.3428767299463449 0.28306962188730767 Q -1.398131889488569 0.3280709256902349 -1.4250933809217377 0.40019635795721803 Q -1.4555563647488243 0.4816887294796536 -1.440091132912383 0.5531263008566617 Q -1.4246259010759421 0.6245638722336698 -1.3695618034695296 0.6771751367574529 L -1.3982740410996572 0.7539840386521622 Q -1.4786377625572924 0.6833747455422632 -1.500743392353369 0.5854342476299144 Q -1.522849022149446 0.4874937497175656 -1.4822317103799971 0.37883725435431825 Q -1.4486173833983842 0.2889146375019756 -1.3786861691135157 0.2317843017017741 Q -1.308754954828647 0.17465396590157262 -1.217126031086852 0.16086482764277277 Q -1.1254971073450568 0.14707568938397297 -1.0290176330138976 0.18314106104132838 Q -0.9325381586827383 0.21920643269868378 -0.8719543195234325 0.28989482235865105 M -1.6372462725785786 1.1846318069973316 Q -1.5863526019553937 1.108993957407997 -1.5018804961214853 1.069282959737516 Q -1.4174083902875767 1.029571962067035 -1.3146586992682991 1.0367483814697047 Q -1.2119090082490218 1.0439248008723743 -1.1337772341203844 1.0949926564325172 Q -1.055645459991747 1.14606051199266 -1.0157602773843082 1.2280386932872656 Q -0.9758750947768691 1.3100168745818712 -0.9826334703308395 1.4067811467068219 Q -0.9894615198595932 1.5045429886474935 -1.040355190482778 1.580180838236828 Q -1.0912488611059628 1.6558186878261627 -1.1756861299524797 1.6950309005887831 Q -1.2601233987989966 1.7342431133514036 -1.3628730898182742 1.7270666939487338 Q -1.4656227808375515 1.7198902745460642 -1.5437893919535803 1.669321203893782 Q -1.6219560030696094 1.6187521332414998 -1.6618411856770483 1.536773951946894 Q -1.7017263682844874 1.4547957706522885 -1.6948983187557338 1.3570339287116167 Q -1.6881399432017632 1.260269656586666 -1.6372462725785786 1.1846318069973316 M -1.6078884031004312 1.5034520784665468 Q -1.5762956761710287 1.5678096701334527 -1.511467976702047 1.60842517679728 Q -1.446640277233065 1.6490406834611069 -1.3578565636338835 1.6552416672168118 Q -1.2690728500347022 1.6614426509725164 -1.1997274092891905 1.6301982939170299 Q -1.130381968543679 1.5989539368615433 -1.0901496687411594 1.5396128713790278 Q -1.0499173689386399 1.4802718058965123 -1.0444827989055503 1.4024613602702636 Q -1.0390482288724607 1.3246509146440144 -1.070640955801863 1.2602933229771085 Q -1.1022336827312658 1.1959357313102026 -1.166562597292387 1.155355061633767 Q -1.2308915118535082 1.1147743919573316 -1.3196752254526896 1.1085734082016268 Q -1.4084589390518711 1.1023724244459219 -1.4783031647052434 1.133581944514017 Q -1.5481473903586156 1.164791464582112 -1.5883796901611351 1.2241325300646275 Q -1.6286119899636546 1.283473595547143 -1.6340465599967442 1.3612840411733917 Q -1.6394811300298338 1.439094486799641 -1.6078884031004312 1.5034520784665468 M -0.9517220269140717 2.31398409007071 Q -0.9758009721215197 2.403835102294818 -1.0440938953457466 2.4631063148477077 Q -1.1123868185699735 2.5223775274005975 -1.2190683762668646 2.544739218914544 Q -1.3247712040766282 2.5668957572953355 -1.410628238074973 2.539936163214433 Q -1.496485272073318 2.51297656913353 -1.5541302724410113 2.440255843527905 Q -1.6117752728087045 2.3675351179222797 -1.6355730362547396 2.2540024510154963 L -1.6780397348179228 2.0514053643801162 L -0.993907543715842 1.9080033243044394 L -0.9514408451526587 2.1106004109398198 Q -0.9276430817066237 2.2241330778466026 -0.9517220269140717 2.31398409007071 M -1.4582872943090055 2.4441767544919406 Q -1.3677202432573625 2.503355376170796 -1.2336342487209033 2.475249396928496 Q -1.0985695242973166 2.44693826455304 -1.0384121727313338 2.356166060368242 Q -0.9782548211653509 2.2653938561834432 -1.0082071786060502 2.122499292662837 L -1.0363131578483502 1.9884132981263778 L -1.6069126820436481 2.1080175747560195 L -1.578806702801348 2.242103569292479 Q -1.5488543453606487 2.3849981328130854 -1.4582872943090055 2.4441767544919406 M -0.8347466813294322 2.704058000147126 L -1.0717808100675679 2.8133091869294806 L -0.9608552755950622 3.0539760226214576 L -1.013529526425759 3.0782540641286475 L -1.1244550608982646 2.8375872284366706 L -1.3651218965902414 2.9485127629091763 L -1.241638754441603 3.2164249007549617 L -1.2943130052723 3.2407029422621516 L -1.4470972319985813 2.909218432724146 L -0.8113735150763782 2.616207586947716 L -0.658589288350097 2.9476920964857216 L -0.7112635391807938 2.9719701379929115 L -0.8347466813294322 2.704058000147126 M -0.13042067880584018 3.638925321723338 L -0.17361622736660332 3.6776311944629465 L -0.30308069825425854 3.533149532035566 L -0.7804659849344172 3.960916160071582 L -0.8271799692753238 3.9087836014637642 L -0.3497946825951651 3.4810169734277485 L -0.4799264961162618 3.335790560163114 L -0.4367309475554987 3.2970846874235056 L -0.13042067880584018 3.638925321723338 M 0.3941095450875518 4.0338499323940935 L -0.010140593554782973 4.60409797088932 L -0.06724697795344653 4.563615124387226 L 0.1218657478491908 4.296846728696327 L -0.18732453339500205 4.07766103120642 L -0.3764372591976394 4.34442942689732 L -0.43354364359630293 4.303946580395226 L -0.029293504953968152 3.7336985419 L 0.02781287944469546 3.7741813884020936 L -0.15378160343612446 4.0303443127046705 L 0.15540867780806833 4.249530010194577 L 0.33700316068888825 3.9933670858920003 L 0.3941095450875518 4.0338499323940935 M 0.6050353860853407 4.195768000237239 L 0.5043013752847341 4.4365451982191555 L 0.748768645266374 4.538823025277242 L 0.7263833095329059 4.592329069273224 L 0.48191603955126594 4.490051242215137 L 0.37963821249317875 4.734518512196777 L 0.6517810224727402 4.848374961185968 L 0.629395686739272 4.9018810051819495 L 0.29267661676456047 4.761007771686849 L 0.5628444618236585 4.1152451717353475 L 0.8995635317983701 4.256118405230448 L 0.8771781960649021 4.30962444922643 L 0.6050353860853407 4.195768000237239 M 1.3529489908825898 4.544210596916842 Q 1.4021651393007222 4.465185153325019 1.4824460372185326 4.423842349483116 Q 1.5627269351363433 4.382499545641213 1.6585945784867433 4.387538886713271 Q 1.7754332688200432 4.393680583644841 1.8559047770519097 4.453487241826758 Q 1.9363762852837763 4.513293900008675 1.969022087357082 4.616149388957931 L 1.8871351419952822 4.611844951792214 Q 1.8609035161161582 4.5393680464792965 1.801588032541499 4.4961948672090095 Q 1.7422725489668398 4.4530216879387226 1.6553924971805398 4.448454785092171 Q 1.57849865824324 4.444412813607291 1.5151936963198684 4.477134851989404 Q 1.4518887343964968 4.509856890371517 1.4133937027337062 4.575426567336413 Q 1.3748986710709157 4.640996244301308 1.3702267819520288 4.729873538657408 Q 1.365554892833142 4.818750833013508 1.396989597681435 4.887495718867662 Q 1.428424302529728 4.956240604721817 1.4879497586490564 4.995419298852504 Q 1.5474752147683848 5.0345979929831906 1.6243690537056845 5.03863996446807 Q 1.7112491054919845 5.043206867314622 1.7747377933919415 5.006989654435359 Q 1.8382264812918985 4.970772441556096 1.8718596393706073 4.902443745698115 L 1.9537465847324071 4.90674818286383 Q 1.9105496622894804 5.004615572179474 1.8237783518686808 5.055130319410924 Q 1.737007041447881 5.1056450666423725 1.6211669723994813 5.0995558628469695 Q 1.5252993290490813 5.094516521774912 1.4497953065224922 5.044984788690916 Q 1.374291283995903 4.9954530556069185 1.3336052702049517 4.912202540402491 Q 1.2929192564140004 4.828952025198064 1.298326049439229 4.726094032853364 Q 1.3037328424644576 4.623236040508665 1.3529489908825898 4.544210596916842 M 2.436301386840915 5.005267677182 Q 2.3488659285996034 4.979455070918165 2.2856066865650426 4.910820033967545 Q 2.222347444530482 4.842184997016926 2.1983162701729446 4.7420276075791135 Q 2.174285095815408 4.641870218141301 2.1995144211482347 4.552003755301984 Q 2.224743746481062 4.462137292462667 2.2909477788336763 4.399461331359115 Q 2.35715181118629 4.336785370255562 2.4514747895888904 4.314154070132444 Q 2.5467701698306926 4.291289457636924 2.6342056280720048 4.317102063900759 Q 2.7216410863133165 4.342914670164594 2.7844141274282763 4.411666363301415 Q 2.847187168543236 4.4804180564382365 2.871218342900773 4.580575445876049 Q 2.89524951725831 4.6807328353138615 2.8705063928450842 4.770482641966977 Q 2.845763268431858 4.860232448620092 2.7795592360792436 4.922908409723645 Q 2.7133552037266297 4.985584370827198 2.6180598234848276 5.008448983322718 Q 2.5237368450822273 5.031080283445836 2.436301386840915 5.005267677182 M 2.731564780849999 4.88146227278366 Q 2.783454449474009 4.831990439483382 2.8027123305480623 4.757954069930725 Q 2.8219702116221157 4.6839177003780685 2.8012054104782242 4.597373936689085 Q 2.7804406093343332 4.510830173000101 2.7298022141720395 4.45407849518008 Q 2.6791638190097458 4.39732681736006 2.6104756595727 4.376785718237788 Q 2.5417875001356545 4.356244619115517 2.4659401566778936 4.374442984162973 Q 2.3900928132201322 4.392641349210428 2.338203144596122 4.442113182510705 Q 2.286313475972112 4.4915850158109825 2.2669389387118573 4.565135184444038 Q 2.2475644014516023 4.638685353077094 2.2683292025954933 4.725229116766078 Q 2.2890940037393848 4.811772880455062 2.33984905508788 4.869010759194683 Q 2.390604106436375 4.926248637934305 2.459292265873421 4.9467897370565765 Q 2.5279804253104667 4.9673308361788475 2.6038277687682276 4.949132471131392 Q 2.679675112225989 4.930934106083937 2.731564780849999 4.88146227278366 M 3.3863996265758836 4.679666357230635 Q 3.29523429387844 4.680029832352701 3.2149400681532816 4.632434272526207 Q 3.1346458424281236 4.584838712699713 3.0828842026320866 4.495789666407092 Q 3.031122562836049 4.406740620114472 3.0295027372334977 4.313413902798275 Q 3.0278829116309462 4.220087185482078 3.073317086838687 4.141049310237406 Q 3.118751262046428 4.062011434992734 3.2026129852540417 4.013265036349864 Q 3.287339262309157 3.9640160975147998 3.3785045950066004 3.9636526223927344 Q 3.4696699277040444 3.9632891472706695 3.549531876505452 4.011135977193261 Q 3.6293938253068596 4.058982807115852 3.6811554651028966 4.148031853408472 Q 3.732917104898934 4.237080899701093 3.734969207425236 4.330156346921193 Q 3.737021309951538 4.423231794141293 3.691587134743797 4.502269669385964 Q 3.646152959536056 4.5813075446306355 3.561426682480941 4.630556483465701 Q 3.4775649592733275 4.67930288210857 3.3863996265758836 4.679666357230635 M 3.633717822488235 4.4763391333508515 Q 3.6692287141143045 4.414057702924748 3.6664311896512154 4.337608871299416 Q 3.6636336651881263 4.261160039674083 3.6189075880828123 4.184214747246479 Q 3.574181510977499 4.107269454818875 3.5093873795904225 4.067435793955299 Q 3.444593248203346 4.027602133091725 3.3728994627392703 4.027635686497744 Q 3.3012056772751945 4.027669239903763 3.2337704771701032 4.066867374894937 Q 3.166335277065012 4.106065509886111 3.1308243854389426 4.168346940312214 Q 3.0953134938128732 4.230628370738318 3.0978597481798653 4.306644925439899 Q 3.100406002546857 4.382661480141481 3.145132079652171 4.459606772569085 Q 3.1898581567574844 4.536552064996689 3.254903558240658 4.576818002784015 Q 3.319948959723831 4.617083940571341 3.3916427451879074 4.617050387165322 Q 3.463336530651983 4.617016833759303 3.5307717307570745 4.577818698768129 Q 3.598206930862166 4.538620563776955 3.633717822488235 4.4763391333508515 M 4.1057303164089225 4.155236296741911 L 4.2890735586501405 3.983812099137028 L 4.328002559699855 4.025447815502563 L 4.093527735957102 4.244679558256219 L 3.6161352494000765 3.734094194405178 L 3.667266830901611 3.6862866492564055 L 4.1057303164089225 4.155236296741911 M 4.752836842429826 3.4471329654134766 Q 4.705735122552039 3.480504779636777 4.653487137529993 3.484880629398364 Q 4.6012391525079455 3.489256479159951 4.554389638136176 3.4643943995379773 L 4.59151825683664 3.4003829499887317 Q 4.638142946303043 3.421646494664102 4.691515724082293 3.4063626276100214 Q 4.744888501861543 3.3910787605559407 4.783522334833647 3.3244722522411854 Q 4.81914573926247 3.26305586145745 4.808394655039791 3.208844108229604 Q 4.797643570817113 3.154632355001758 4.749202473860927 3.126535021931137 Q 4.7102765923782774 3.1039568078565307 4.674948577611859 3.1100544609020697 Q 4.639620562845442 3.116152113947609 4.610883703322056 3.13878931573434 Q 4.58214684379867 3.161426517521071 4.538202244949808 3.205299883382521 Q 4.486645206429969 3.2563182308573637 4.45050359212449 3.2827527483561574 Q 4.414361977819012 3.309187265854951 4.366940828830028 3.3152067864807684 Q 4.319519679841045 3.321226307106586 4.263293406588329 3.288613331221044 Q 4.21658234880915 3.2615194743315166 4.19386768283307 3.2159750570051844 Q 4.17115301685699 3.1704306396788526 4.1759811893507965 3.11427292649206 Q 4.180809361844604 3.0581152133052676 4.213924075820693 3.001023920464049 Q 4.262592670603733 2.917117020379227 4.333534517445176 2.8894809141642526 Q 4.4044763642866185 2.8618448079492786 4.473868476239288 2.8916899884437592 L 4.435736381357731 2.957431477170011 Q 4.395028372418261 2.9419118763960217 4.345980692581527 2.9597044339028367 Q 4.296933012744795 2.977496991409651 4.262814822587612 3.036318323427877 Q 4.231205322883163 3.090814557503586 4.239110479295058 3.143953606254043 Q 4.247015635706954 3.1970926550045005 4.297186771840146 3.226193464256215 Q 4.3352476337342924 3.248269940240274 4.370143138706458 3.2419214181494618 Q 4.405038643678624 3.235572896058649 4.434458882041535 3.21275405352294 Q 4.463879120404447 3.1899352109872305 4.507321981162761 3.146926864714284 Q 4.557875543501506 3.097638556416448 4.594951405691783 3.0705898883744243 Q 4.63202726788206 3.0435412203324006 4.679448416871044 3.0375216997065833 Q 4.726869565860028 3.0315021790807655 4.78223081952424 3.0636134168757607 Q 4.824616779360902 3.0881985833125545 4.849632450900831 3.1327655685977 Q 4.87464812244076 3.1773325538828456 4.872415008712463 3.2349954813412785 Q 4.8701818949841655 3.2926584087997113 4.8345584905553425 3.354074799583447 Q 4.799938562307613 3.4137611511901755 4.752836842429826 3.4471329654134766 M 4.527654116687546 2.2674982140251165 L 4.582686077434946 2.2858144171332007 L 4.521421536004459 2.4698868375641605 L 5.1296195849541775 2.6723124615690184 L 5.1075138225823515 2.738730345229674 L 4.499315773632634 2.536304721224816 L 4.437735435596834 2.721325968565214 L 4.382703474849434 2.7030097654571303 L 4.527654116687546 2.2674982140251165 M 4.565741671685077 2.0659692897902557 L 5.00349770752209 2.110350063648584 Q 5.106967315992657 2.120840064742371 5.161705157124107 2.076635780467335 Q 5.216442998255556 2.0324314961922996 5.225117422236957 1.9468700891877926 Q 5.233791846218358 1.8613086821832856 5.189436263850623 1.8080631911740075 Q 5.145080681482889 1.7548177001647294 5.040616172930874 1.74422683367581 L 4.602860137093861 1.6998460598174814 L 4.609920714753141 1.6302030541161385 L 5.046681850508706 1.6744829625793345 Q 5.179003561341258 1.6878980601319657 5.238550856441411 1.7647964973479144 Q 5.2980981515415655 1.8416949345638631 5.286700361891585 1.9541186437674596 Q 5.275302572241605 2.066542352971056 5.20153325642776 2.129924827239241 Q 5.127763940613915 2.1933073015074256 4.9954422297813625 2.1798922039547945 L 4.558681094025798 2.1356122954915984 L 4.565741671685077 2.0659692897902557 M 4.556100138542129 1.071731098402745 L 4.613721177739427 1.0651117448222567 L 4.648872227787537 1.3710993322837666 L 4.908166904175375 1.3413122411715683 L 4.878493939849048 1.0830110309767873 L 4.936114979046345 1.076391677396299 L 4.965787943372673 1.33469288759108 L 5.285684057536979 1.297944062540782 L 5.293672932547913 1.3674866960547616 L 4.599240063601174 1.4472613193782344 L 4.556100138542129 1.071731098402745 M 4.4113812711097 0.5731088768934118 L 4.466796338084627 0.5559866588080037 L 4.557721220331278 0.8502597730886541 L 4.807089021718452 0.773209791704317 L 4.73033425099076 0.5247974225063653 L 4.785749317965688 0.5076752044209571 L 4.86250408869338 0.7560875736189088 L 5.170153253623151 0.6610297421792285 L 5.190817999588298 0.7279099954248309 L 4.522970899321498 0.9342622444196647 L 4.4113812711097 0.5731088768934118 M 4.309175704479168 0.3615467144994578 L 4.776721668218948 0.1478231271473816 L 4.802186042405067 0.20104498024654882 L 4.341977271227389 0.4301036778136393 L 4.309175704479168 0.3615467144994578 M 4.9615580695577055 0.1286722853868254 Q 4.9542852836121325 0.14822622577207462 4.934439846863291 0.15772141614655955 Q 4.914594410114449 0.16721660652104448 4.895256269510438 0.1603948532288546 Q 4.875918128906427 0.1535730999366647 4.866422938531942 0.1337276631878227 Q 4.8573593477199335 0.11478429174574623 4.864181101012123 0.0954461511417353 Q 4.871002854304313 0.07610801053772437 4.890848291053156 0.06661282016323944 Q 4.9106937278019975 0.05711762978875451 4.930482901059391 0.0637235832997061 Q 4.950272074316785 0.0703295368106577 4.959335665128793 0.08927290825273418 Q 4.9688308555032785 0.10911834500157618 4.9615580695577055 0.1286722853868254" fill="#64c6c4" fill-rule="nonzero"></path></g><g clip-path="url(#SvgjsClipPath1001)"><g clip-path="url(#SvgjsClipPath1000f8d788a5-52d6-4502-9644-1931d7c8fda8)"><path d=" M 0.5831588420738976 2.246606183020261 C 0.477489221386777 2.093218604745882 0.4996389109874891 1.8856573637700849 0.6352975185361819 1.7580228852660837 C 0.7709561260848745 1.6303884067620822 0.9794809804054948 1.6209193711520031 1.126149088456975 1.735733499139973 C 1.055048227369918 1.482610077303971 1.1449649189512872 1.2116827742893628 1.3533020547760335 1.0513006151642632 C 1.5616391906007798 0.890918456039164 1.8465531700332343 0.8732934945449783 2.073068923814833 1.0067753750308397 C 2.2995846775964317 1.140257255516701 2.422207509347658 1.3980367273080345 2.382846112909115 1.6579934152383424 C 2.557360841858128 1.566505695718639 2.772891709776486 1.6248154140111208 2.877476449590364 1.7918107002952761 C 2.9820611894042415 1.958805986579431 2.940429817159616 2.1781696278648974 2.7819349623373086 2.295237020583447 C 2.801413268437383 2.2933757602227733 2.821108000160792 2.2923585597931027 2.8410624426322015 2.2923585597931027 C 3.0470506257847223 2.2922372351063314 3.239429648729259 2.3952185060034994 3.353558318687495 2.5666996799314856 C 3.6218589270666657 1.8595975350673106 3.3965668804747082 1.0602038800840479 2.798515081203896 0.5972646776858364 C 2.2004632819330836 0.1343254752876249 1.370119022980091 0.11657347514966546 0.7528282818384602 0.5535297665896278 C 0.1355375406968294 0.99048605802959 -0.12371364713317194 1.779520622224229 0.11412123118410283 2.497443480464553 C 0.22434868088879853 2.3470408614310143 0.3968680902447525 2.2547789587715688 0.5831588420738973 2.2466061830202606 Z" fill="#64c6c4" transform="matrix(1,0,0,1,0,0)" fill-rule="nonzero"></path></g><g clip-path="url(#SvgjsClipPath1000f8d788a5-52d6-4502-9644-1931d7c8fda8)"><path d=" M 2.736204228126801 2.6788514379432478 C 2.542849576240061 2.2073249323851107 2.278745388085384 1.2123297716686379 1.3073622628746682 1.6461765762042975 C 1.3321996381898458 1.4226010031396827 1.388439616673756 1.2036446832279737 1.4744212015263072 0.9957742929604766 C 1.6184524538551914 0.7668392685976002 1.6384285388889344 0.5001596155252467 1.5011064808834094 0.3063504698295052 C 1.3318183583114283 0.06748150935559148 0.9787848815287443 0.017314049866732902 0.6581286779968509 0.1662798064076361 C 0.5444587233397754 0.0891183783469245 0.3927924961156907 0.0995507321223944 0.29075820774609384 0.19154936563952835 C 0.18872391937649688 0.28354799915666223 0.1627003091073378 0.43332867279062326 0.22772304087220438 0.5543525916081207 C 0.09920950573637953 0.7767948472709717 0.08611575552466277 1.0298613286356064 0.21783238988583328 1.2157925816419843 C 0.37642908666510666 1.4394901059201735 0.6961330174543297 1.4976653134723958 0.9994535285571567 1.3818343198639529 C 0.947511378956958 1.4950465634300525 0.896283433913762 1.6084752326194862 0.8546647865466029 1.7027502341438472 C 0.713208999135395 2.0234497228004074 0.7414741855428365 2.344105926332301 0.8876264089803958 2.4808652777171574 C 0.8876264089803958 2.4808652777171574 0.7132089991353951 2.9335194689205553 0.8121804366861071 3.079671692358114 L 1.1092678898369102 3.079671692358114 C 1.0965912475298834 2.960121153877838 1.1303599117370275 2.8402726157199916 1.2035861764859375 2.7449261807471674 C 1.2768124412348476 2.6495797457743437 1.2083258976369555 2.9429556260979246 1.1564486757237573 3.079671692358114 L 1.5336785371952004 3.079671692358114 C 1.5336785371952004 3.079671692358114 1.6137560178288404 3.0419919913356366 1.6421510596102822 2.8250902316301403 L 1.7694958963801026 2.8344831036828433 L 1.6798956883197598 3.0749968988940966 L 2.3871746253757986 3.0749968988940966 C 2.3871746253757986 3.0749968988940966 2.4295507624246273 3.013770090052862 2.4391167749759974 2.848637339448897 C 2.4391167749759974 2.848637339448897 2.7361609430021336 3.0749968988940966 3.042749481017307 3.0749968988940966 C 3.3493380190324795 3.0749968988940966 3.5188858523524615 2.81095763842642 3.5188858523524615 2.81095763842642 C 3.5188858523524615 2.81095763842642 2.9295588800135404 3.1504428711883854 2.736204228126801 2.6788514379432478 Z" fill="#a4cb6a" transform="matrix(1,0,0,1,0,0)" fill-rule="nonzero"></path></g><g clip-path="url(#SvgjsClipPath1000f8d788a5-52d6-4502-9644-1931d7c8fda8)"><path d=" M 0.814885756977784 2.4832676021361664 L 1.0588623621623838 2.679479072250917 L 1.2035861764859377 2.7449261807471674 L 1.1862071989322043 2.939449530999912 L 1.1384204213000215 3.1304451435923086 L 0.7830495477853289 3.1198186454866015 L 0.735306055277813 2.881101182949022 L 0.814885756977784 2.4832676021361664 Z" fill="#212245" transform="matrix(1,0,0,1,0,0)" fill-rule="nonzero"></path></g><g clip-path="url(#SvgjsClipPath1000f8d788a5-52d6-4502-9644-1931d7c8fda8)"><path d=" M 1.71132068882788 2.8545890440905866 L 1.9765286476615611 2.8386817607755264 L 2.018948069835057 2.9076133218074562 L 1.9659237921181871 3.1304451435923086 L 1.599926420497787 3.125121073258288 L 1.71132068882788 2.8545890440905866 Z" fill="#212245" transform="matrix(1,0,0,1,0,0)" fill-rule="nonzero"></path></g><g clip-path="url(#SvgjsClipPath1000f8d788a5-52d6-4502-9644-1931d7c8fda8)"><path d=" M 3.5189507800394613 2.8109143533017527 C 3.5189507800394613 2.8109143533017527 3.037295555309286 3.2002856922422427 2.6949102191946426 2.8374697772848547 C 2.352524883079999 2.4746538623274663 1.6816487358687662 2.4677282423807734 1.4488613354105424 2.460889192683414 C 1.2160739349523186 2.454050142986054 0.8213785256778088 2.124239135587126 1.179627859982846 1.2861092666632532 L 0.8844665948797168 1.4640976992932675 C 0.8844665948797168 1.4640976992932675 0.5518853395021112 2.289783094875426 0.8395366354755449 2.488245391472852 C 1.1271879314489786 2.686707688070278 1.469335199377954 2.7758317597592854 1.469335199377954 2.7758317597592854 C 1.469335199377954 2.7758317597592854 1.6952835501388184 2.89908615224809 2.10608102578939 2.8169526281927766 C 2.10608102578939 2.8169526281927766 2.39364575151349 2.90599012963245 2.537438935656706 2.9744239117307125 C 2.681232119799923 3.0428576938289744 3.213314514766959 3.325271489717721 3.5189507800394613 2.8109143533017527 Z" fill="#64c6c4" transform="matrix(1,0,0,1,0,0)" fill-rule="nonzero"></path></g><g clip-path="url(#SvgjsClipPath1000f8d788a5-52d6-4502-9644-1931d7c8fda8)"><path d=" M 1.2551387599641348 2.2658247783723344 C 1.2551387599641348 2.2658247783723344 1.1739358660891575 2.44762230197303 1.209234885254959 2.786414972740326 L 1.6052937759564743 2.8811661106360216 C 1.6052937759564743 2.8811661106360216 1.6689445517790513 2.5045855260345813 1.6212010592715351 2.2817753468120623 C 1.5734575667640192 2.0589651675895433 1.2551387599641348 2.2658247783723344 1.2551387599641348 2.2658247783723344 Z" fill="#a4cb6a" transform="matrix(1,0,0,1,0,0)" fill-rule="nonzero"></path></g><g clip-path="url(#SvgjsClipPath1000f8d788a5-52d6-4502-9644-1931d7c8fda8)"><path d=" M 1.8280606700543263 2.3347563394042647 C 1.8280606700543263 2.3347563394042647 1.7059966184938595 2.6689391443945434 2.045481851255825 2.875820397739668 L 2.390269511789477 2.99247380871678 C 2.432897813131384 2.878020914330854 2.425210908100732 2.7508883081234905 2.3691030858273967 2.6424053629737747 C 2.273594458250031 2.467360318821105 2.3594505030266926 2.6252211684810423 2.3594505030266926 2.6252211684810423 L 2.353174159950002 2.5468967353964094 Z" fill="#a4cb6a" transform="matrix(1,0,0,1,0,0)" fill-rule="nonzero"></path></g><g clip-path="url(#SvgjsClipPath1000f8d788a5-52d6-4502-9644-1931d7c8fda8)"><path d=" M 1.0236931983705826 0.08224173686698127 C 1.219212106490664 0.08224173686698127 1.3957072023196726 0.15781756453527038 1.5010415531964088 0.3064370400788389 C 1.6383636112019342 0.5002029006499135 1.6183875261681908 0.7669258388469338 1.4743562738393066 0.9958608632098095 C 1.3883746889867559 1.2037312534773068 1.3321347105028456 1.422687573389015 1.307297335187668 1.6462631464536295 C 1.4744428440886403 1.5716179489656787 1.6205950675261995 1.5392623182772216 1.749086960099691 1.5392839608395552 C 2.367436608527723 1.5392839608395552 2.576049266859521 2.2885494688224215 2.7361393004398002 2.6789380081925818 C 2.81539436370477 2.8722277323923215 2.9612219487073275 2.9292342415785395 3.105599482033547 2.9292342415785395 C 3.3136061486200092 2.9292342415785395 3.518972422601795 2.811000923551087 3.518972422601795 2.811000923551087 C 3.518972422601795 2.811000923551087 3.349229806220813 3.075040184018764 3.0428360512666406 3.075040184018764 C 2.7364422963124677 3.075040184018764 2.4391167749759974 2.8486373394488975 2.4391167749759974 2.8486373394488975 C 2.4296373326739613 3.013770090052863 2.3871746253757986 3.074996898894097 2.3871746253757986 3.074996898894097 L 1.6798956883197598 3.074996898894097 L 1.7694958963801026 2.8344831036828437 L 1.6421510596102822 2.825090231630141 C 1.6138425880781735 3.041991991335637 1.5336785371952004 3.079671692358115 1.5336785371952004 3.079671692358115 L 1.1564486757237573 3.079671692358115 C 1.208390825323956 2.9429556260979255 1.2035861764859375 2.744926180747168 1.2035861764859375 2.744926180747168 C 1.1303437177895834 2.8402895142227345 1.0965741519597771 2.9601644989375346 1.10926788983691 3.079736620045115 L 0.812180436686107 3.079736620045115 C 0.713208999135395 2.9335843966075563 0.8876264089803956 2.4809302054041575 0.8876264089803956 2.4809302054041575 C 0.7414741855428364 2.3441708540193007 0.713208999135395 2.0235146504874075 0.8546647865466027 1.7028151618308474 C 0.896283433913762 1.6085401603064868 0.947619591768625 1.4950465634300527 0.9994535285571565 1.381899247550953 C 0.9024192013411768 1.4196068113541203 0.7993248184961422 1.4393133352713579 0.6952240298363263 1.440052812540842 C 0.4997051217162447 1.440052812540842 0.3232100258872362 1.364476984872553 0.21783238988583312 1.2158575093289845 C 0.08611575552466255 1.0299262563226066 0.09920950573637932 0.7768597749579718 0.22772304087220427 0.5544175192951208 C 0.16268376062801462 0.43338989756779095 0.18869628652427917 0.28359461963487287 0.2907311593964367 0.19158006690749974 C 0.39276603226859413 0.09956551418012663 0.5444439063371729 0.08912045254601629 0.6581286779968512 0.16627980640763632 C 0.77245989931434 0.11212454384724489 0.8971903966537675 0.08345078141938414 1.0236931983705826 0.08224173686698122 M 1.0236931983705826 0 L 1.0236931983705826 0 C 0.8999768618285023 0.0010188616407641605 0.7776530208984891 0.02621442618380737 0.6636042462672057 0.07416906111661689 C 0.5229546101464841 0.0024241826811384594 0.3526134004768881 0.024968392557825014 0.23546971778199682 0.13083153688714996 C 0.11832603508710551 0.23669468121647488 0.07870786159159202 0.40389147974905676 0.13589364889151992 0.5510629221334413 C 0.007877892689363468 0.798610550103055 0.012595971278048186 1.0682335916527532 0.15080537433924357 1.2632763634014994 C 0.2674371427540231 1.4277598371354618 0.46585615422678206 1.5221430514714898 0.6952240298363263 1.5221430514714898 C 0.7477019696219314 1.5220854846029734 0.8000719234603203 1.5173851526929865 0.851721398069258 1.5080970285171025 C 0.8246465525901548 1.5680252836183317 0.8002770274027282 1.6224996130115403 0.7795001675626487 1.66957218608672 C 0.6396242872017802 1.9867006519582668 0.6474805373288103 2.3170094382908633 0.7932648372067015 2.499434596199228 C 0.7441145781475134 2.6387910550640945 0.6423079649311239 2.9753545419110488 0.7441578632721801 3.1257487075659576 C 0.7594543669803856 3.1483018173621566 0.7849292788375244 3.1618133280417147 0.8121804366861071 3.1618268589757625 L 1.1092678898369102 3.1618268589757625 C 1.1172569307277669 3.161834131837694 1.1252042255466514 3.1606748475475994 1.1328582827803337 3.158385691564749 C 1.1405120045533241 3.16067636349364 1.148459523262709 3.161835680442991 1.1564486757237573 3.161826858975762 L 1.5336785371952004 3.161826858975762 C 1.5457603086198919 3.1618286554234163 1.5576940928234424 3.1591684930003336 1.5686312753636675 3.1540355365357318 C 1.5849612767872836 3.1458381253149037 1.5997342175004052 3.134851803515359 1.6122843235901674 3.1215716930356074 L 1.612414178964168 3.121788118658942 C 1.6277816347864216 3.143879521328961 1.6529849346734478 3.157055075792031 1.6798956883197596 3.15706549526241 L 2.3871746253757986 3.15706549526241 C 2.4141323355638464 3.157046788193756 2.439369358674185 3.1438177687100923 2.4547210624183906 3.121658263284941 C 2.479242654571458 3.080870923152923 2.4958514395909734 3.0358245499899144 2.5036765384165776 2.9888811433694333 C 2.625654019727711 3.0604098118813736 2.829894880468159 3.15706549526241 3.0425763405186395 3.15706549526241 C 3.3899394659699684 3.15706549526241 3.5799828058196947 2.8675745814906355 3.5879689113207256 2.8552383209605883 C 3.608278409051872 2.823347502892017 3.6042280930601303 2.7817180929725733 3.5781520839019523 2.7543403333572063 C 3.5520760747437743 2.7269625737418393 3.510693169429225 2.720890673083805 3.477851554168304 2.7396237529754797 C 3.476076864056964 2.74064095340515 3.2882410655652454 2.8469059344622236 3.105599482033547 2.8469059344622236 C 2.963126494192669 2.8469059344622236 2.8671417302439686 2.7817185367139743 2.8121479793547577 2.6475995779337946 C 2.7943361505543565 2.604162955330628 2.7756802618229517 2.5555970454544426 2.7558773172878763 2.5041743173502455 C 2.595722356020597 2.0871654263099835 2.3536502963213373 1.4569772962855727 1.7490220324126913 1.4569556537232395 C 1.6328743930104728 1.458633585059143 1.5177827756506221 1.4792934917261658 1.4083031735977225 1.5181175348774731 C 1.4368358702716546 1.3520441113708912 1.4834872839327977 1.189598779700485 1.5474215642769216 1.0336920621686168 C 1.711450544201881 0.7689169545816075 1.7194799348275784 0.47252206342547376 1.5680036410559985 0.25875847525832263 C 1.4515666557022193 0.09433992921136089 1.2531043591047937 0 1.0236931983705826 0 Z" fill="#212245" transform="matrix(1,0,0,1,0,0)" fill-rule="nonzero"></path></g><g clip-path="url(#SvgjsClipPath1000f8d788a5-52d6-4502-9644-1931d7c8fda8)"><path d=" M 0.7860578639496737 1.4412647960315135 C 0.7860578639496737 1.4412647960315135 1.0410072482373158 1.4002737829720235 1.179627859982846 1.2861092666632532 C 1.0990486608059507 1.3873876567504089 0.9923222499522506 1.4647177179909447 0.8709832785459981 1.5097418632544424 L 0.8844665948797168 1.4640976992932675 Z" fill="#212245" transform="matrix(1,0,0,1,0,0)" fill-rule="nonzero"></path></g><g clip-path="url(#SvgjsClipPath1000f8d788a5-52d6-4502-9644-1931d7c8fda8)"><path d=" M 0.6380443801514408 0.9614708316620114 C 0.638061889574237 0.9907662769902922 0.620427057853457 1.0171864343029782 0.593365780865418 1.028407428525375 C 0.5663045038773793 1.0396284227477721 0.5351482894585599 1.0334395371182046 0.5144301810633768 1.0127276224774022 C 0.493712072668194 0.9920157078366001 0.48751387165859905 0.9608613452770487 0.49872677410227756 0.9337967144399032 C 0.509939676545956 0.9067320836027575 0.5363545598920927 0.8890893530868392 0.5656500091461595 0.889098103219068 C 0.6056189201251605 0.8891100413618538 0.6380204913708014 0.9215019260391105 0.6380443801514408 0.9614708316620115 Z" fill="#212245" transform="matrix(1,0,0,1,0,0)" fill-rule="nonzero"></path></g><g clip-path="url(#SvgjsClipPath1000f8d788a5-52d6-4502-9644-1931d7c8fda8)"><path d=" M 0.3276467511655867 0.9614708316620114 C 0.3276554617589449 0.9907653963937014 0.31000860898384963 1.0171778343971958 0.28294143272634636 1.028382278521753 C 0.2558742564688432 1.0395867226463096 0.22472243063685726 1.0333744733364436 0.2040235479606216 1.012644595028781 C 0.18332466528438596 0.9919147167211185 0.1771590364386492 0.9607536301692837 0.18840396953268645 0.9337032497947736 C 0.1996489026267237 0.9066528694202632 0.22608771663199265 0.8890455582073292 0.25538223553428563 0.889098103219068 C 0.2953103235008009 0.8891578043742456 0.3276467957986522 0.9215426990624802 0.3276467511655867 0.9614708316620114 Z" fill="#212245" transform="matrix(1,0,0,1,0,0)" fill-rule="nonzero"></path></g><g clip-path="url(#SvgjsClipPath1000f8d788a5-52d6-4502-9644-1931d7c8fda8)"><path d=" M 1.1510380351404033 1.0248618967365872 C 1.1510380351404033 1.0248618967365872 1.152228376068741 1.0326099340519501 1.1532022913737447 1.0460066801363346 C 1.154072623064528 1.054146110526853 1.1540145363913334 1.0623581139497342 1.1530291508750774 1.0704844181354285 C 1.1526122444265383 1.0813728107979719 1.1510967903944884 1.0921912673329872 1.1485058553473932 1.1027751211368857 C 1.1471640164827217 1.1086186129669076 1.1458005350557163 1.1147001729825976 1.1443504833793776 1.121019801183955 C 1.142186227146036 1.127101361199645 1.1400219709126944 1.1333993468386692 1.1376412890560184 1.1398704729763605 C 1.1324364131991456 1.1534440198521965 1.1261544783947532 1.1665796323752056 1.118855544950613 1.179151723611511 C 1.1106729445298937 1.192470884121803 1.1013997865218068 1.205088459772151 1.091131422601507 1.216874709758655 C 1.0702554472821981 1.2417699192604976 1.0447238357813535 1.2623539999407063 1.0159668036175529 1.2774738842922204 C 1.0022771521084293 1.2850258853754333 0.9879791831112296 1.291418344425827 0.9732227430090564 1.2965842668326266 C 0.9593831560831125 1.3010346969600755 0.9452137332728286 1.304385280597032 0.9308466059602271 1.3066047731929984 L 0.9109787337381514 1.3091585955483416 L 0.89227955988208 1.3093100934846753 C 0.8814812107909109 1.30960456218607 0.8706814518255291 1.3087777169731394 0.8600537845676236 1.3068428413786661 C 0.8518366238728606 1.3060428476095325 0.8437307679924946 1.3043520110651052 0.8358790424411975 1.3018001243549802 C 0.8227203645424807 1.2979910333842988 0.8155783189724533 1.2951775002809547 0.8155783189724533 1.2951775002809547 C 0.8155783189724533 1.2951775002809547 0.8233696414124831 1.2932296696709473 0.8363335362501993 1.2908489878142715 C 0.8440729712941988 1.289601131411312 0.8517386039780281 1.2879321765103087 0.8592962948859537 1.2858495559152525 C 0.8679533198193203 1.2836852996819108 0.877714115431691 1.281521043448569 0.8879726899777303 1.2781015185998896 L 0.9038799732927911 1.2731453718255372 L 0.9203499632285209 1.2666526031255125 C 0.9317988787028981 1.2630382952158319 0.9428365854929402 1.2564589562664734 0.9547183522139858 1.251502809492121 C 0.9659075569403619 1.2448585428557621 0.9779191790354079 1.2392964043360744 0.9889785283877834 1.2315267244583779 C 1.000557299236161 1.224666032198685 1.0111405122172015 1.2160090072653187 1.0221349338825771 1.2080012592019547 C 1.0323069381792827 1.1989546681465866 1.0430200065343236 1.190492426274221 1.052196452963692 1.1806450604125165 C 1.0621736741993968 1.1715118991078148 1.0701164945757606 1.160907043564441 1.0790332302571282 1.1514276012624047 C 1.0863051312011558 1.1408227457190308 1.0950920115085228 1.1314298736663282 1.1010653587125456 1.121019801183955 L 1.11091272457425 1.1063028587972321 C 1.1137262576775941 1.1012817843358795 1.116474863093938 1.0964554929355277 1.1190936131362812 1.0918023420338432 C 1.1246773942183028 1.0824094699811406 1.128811123623985 1.0736875173607738 1.1326851422816666 1.0657014118597434 C 1.136408707156095 1.0587023762363699 1.1396833441838592 1.0514735969256321 1.1424892230187043 1.0440588495263272 C 1.1475319400423898 1.0318524443702808 1.1510380351404033 1.0248618967365872 1.1510380351404033 1.0248618967365872 Z" fill="#212245" transform="matrix(1,0,0,1,0,0)" fill-rule="nonzero"></path></g><g clip-path="url(#SvgjsClipPath1000f8d788a5-52d6-4502-9644-1931d7c8fda8)"><path d=" M 1.243495061428757 2.3239567007998905 C 1.240270319641078 2.3331764323539255 1.2378896377844022 2.342720802342962 1.235227602617392 2.3520920318333314 C 1.232565567450382 2.3614632613237005 1.2308990901507089 2.371115844124404 1.2285400508563664 2.380573643864107 C 1.2261810115620242 2.3900314436038097 1.2239734702040157 2.3994892433435124 1.2227398441510111 2.409185111268883 L 1.2182381911856606 2.43799136173466 C 1.21462388327598 2.4570584591504 1.2139096787189771 2.4765800503751407 1.2120267757959702 2.4958419308518813 L 1.2096677365016277 2.524734751566992 L 1.2094945960029602 2.5538223553431028 L 1.2093214555042928 2.5827584611828804 C 1.2089753311794242 2.5923805643954334 1.2092138383219178 2.602014807454336 1.2100356600612956 2.6116079967733246 L 1.214797023774647 2.6690689997685437 C 1.2152583146936444 2.678638785390461 1.216350024445717 2.688167748656896 1.2180650506869928 2.697593896923985 L 1.223215980522346 2.725880725893761 L 1.2334529125060518 2.782151387960643 L 1.234037261689054 2.7853977723106556 L 1.233561125317719 2.790267348835674 L 1.201898056623931 3.103456868362539 L 1.1206951627489539 3.090947467333825 L 1.184930287754533 2.782757379705979 L 1.1850385005662 2.7908300554563428 L 1.1804719199138491 2.7308368726681134 L 1.1783076636805077 2.700991779210332 C 1.1775861125775142 2.691037563063494 1.1774921421741176 2.6810477863331466 1.1780263103701731 2.671081758065551 L 1.1793681492348451 2.611369928587656 C 1.1795786675676287 2.601441125470195 1.1803736037329324 2.5915333301735473 1.1817488310915207 2.5816979756285425 L 1.1850168580038667 2.5521125929187622 L 1.188306527478546 2.52263542302065 L 1.193825380873567 2.493461248995205 C 1.1977426846559154 2.4739829428951303 1.2005778603215929 2.454504636795056 1.2062482116529478 2.435632322440317 L 1.213844751031977 2.407085782722541 C 1.2160090072653187 2.3975414127335046 1.2196882428619995 2.388321681179469 1.222674916464011 2.3789504516891 C 1.2256615900660222 2.3695792221987313 1.2284967657316996 2.3602296352706955 1.2323707843893812 2.351161401652994 C 1.2362448030470627 2.342093168035292 1.2393180468984077 2.3328085087942574 1.243495061428757 2.3239567007998905 Z" fill="#212245" transform="matrix(1,0,0,1,0,0)" fill-rule="nonzero"></path></g><g clip-path="url(#SvgjsClipPath1000f8d788a5-52d6-4502-9644-1931d7c8fda8)"><path d=" M 1.479875127234328 3.090817611959824 L 1.484723061197013 3.0856017544374703 C 1.489535489095702 3.0801927673230156 1.494044072344506 3.074520911793671 1.4982280200930653 3.0686123430057375 C 1.504223009859421 3.060712807754042 1.5108456339334462 3.0502161650223356 1.5184205307501422 3.038031402428622 C 1.5253677932591687 3.025392146025907 1.5338949628185345 3.011389408196187 1.5412750765742296 2.9947462777617897 C 1.5494559651362607 2.978579283698727 1.556706223517955 2.960118178028324 1.5644975459579848 2.940639871928249 C 1.571747804339679 2.9209018550801735 1.5790197052837074 2.899778714242759 1.585512473983732 2.8775518027263414 C 1.5914208935007543 2.855130108148922 1.5984980113837817 2.8321024218261672 1.6028265238504646 2.8079709648244084 L 1.6104663483541606 2.7716763877912696 L 1.6162449124971825 2.734624321076461 L 1.6218503361415375 2.697420756425319 C 1.6230478912573199 2.6849546405212714 1.6242454463731018 2.672560666491668 1.6254430014888845 2.6602388343365098 C 1.6266405566046669 2.6479170021813516 1.6278236833455602 2.6356528835257493 1.6289923817115648 2.6234464783697025 C 1.6299230118919017 2.6113266434629896 1.6301610800775692 2.5992933788056103 1.6307670718229046 2.5874548972092315 C 1.6315029189422412 2.5637995765788077 1.6334940346769153 2.5408584605053868 1.6331044685549136 2.519107685360303 C 1.6327149024329124 2.4973569102152204 1.6328231152445791 2.476709905749141 1.6326932598705788 2.4576860934580687 C 1.6326932598705788 2.4195518986265894 1.6294252329582328 2.387932115057468 1.628667743276563 2.3656619184163836 C 1.6274557597858919 2.3434133643376316 1.6267415552288889 2.330687537685583 1.6267415552288889 2.330687537685583 L 1.6321738383745765 2.3653156374190485 C 1.6351821545389214 2.3873694084367996 1.6416099955519463 2.4187294812579196 1.645505656771961 2.4568203909647317 C 1.6475617001936356 2.475909130942805 1.6498341692386442 2.496556135408884 1.6521282808459863 2.5184151233656342 C 1.6544223924533283 2.540274111322385 1.6550933118856643 2.56349658070614 1.6567597891853372 2.5874981823338987 C 1.657365780930673 2.599531446991278 1.6583396962356765 2.611737852147325 1.6586426921083446 2.6241390403643723 C 1.6589456879810127 2.6365402285814192 1.6587725474823451 2.649114557297134 1.6588158326070117 2.6617754562621827 C 1.6588591177316785 2.6744363552272317 1.6589240454186787 2.687248752128614 1.658988973105679 2.700082791592329 L 1.6571277127450053 2.7387364079198107 L 1.6549634565116638 2.7774765944966253 C 1.6535206190227694 2.7903322765226743 1.6521571375957642 2.8031302450491675 1.6508730122306483 2.8158705000761057 C 1.6487087559973068 2.8414087236295367 1.643839179472288 2.8662543851882982 1.6400517310639402 2.8905156975640582 C 1.6355717206609233 2.914647154565817 1.6301394375152356 2.9379345516365727 1.6244690861838806 2.959923394967323 C 1.6182360282318569 2.9818040254864067 1.6123492512771673 3.00260252788882 1.60514227802014 3.0214099145565587 C 1.5988226498187825 3.0404553694099645 1.5908581868800853 3.05740149571703 1.5843004904930604 3.0726378595997543 C 1.5770285895490326 3.087657797859145 1.5704492505996739 3.1007731906331957 1.5640430521489828 3.1113564036142356 C 1.5590942864018 3.1200494560716643 1.5536756168805397 3.1284664560613558 1.547811130398921 3.1365699887326657 L 1.5410370083885616 3.145443439289366 Z" fill="#212245" transform="matrix(1,0,0,1,0,0)" fill-rule="nonzero"></path></g><g clip-path="url(#SvgjsClipPath1000f8d788a5-52d6-4502-9644-1931d7c8fda8)"><path d=" M 1.9423550417370972 3.0772044402521046 L 1.9860730176505976 2.8733531456336583 L 2.001958658403325 2.90611998500645 C 1.9887851192412815 2.8976760988839114 1.9761369722281705 2.888439337808051 1.9640841743198476 2.8784607903443455 C 1.9523106204104688 2.8689380629176418 1.9411214156840924 2.858830986307936 1.930386704766718 2.8483343435762296 C 1.9193273554143426 2.838205624404191 1.9097397003006393 2.8265402833064797 1.8994378406299328 2.8158705000761057 C 1.8898501855162295 2.804335014352395 1.8806520965245277 2.7924965327560156 1.8715189352198258 2.780722978846638 L 1.8469979120960653 2.7432164183228274 L 1.8262643373806529 2.703545601565676 C 1.8204641306752973 2.6897809319216233 1.8154430562139448 2.6757565515295694 1.8099458453812571 2.6619485967608503 C 1.804448634548569 2.6481406419921307 1.8021761655035609 2.6332722016690737 1.798237219158879 2.6190530382160193 C 1.7945607587266692 2.604753771107583 1.7921919693843251 2.5901498588318463 1.791160101275852 2.5754216325518517 C 1.7888527997976706 2.5609189458152013 1.7879324399158258 2.5462294223466984 1.7884114958595083 2.5315521587020173 L 1.7895152665385123 2.4878125402261837 L 1.796505814172206 2.444830411432019 L 1.8000119092702194 2.423469202408938 L 1.8062666097845765 2.402735627693525 L 1.818776010813291 2.3616147592600343 C 1.8231045232799745 2.347958302427649 1.8300085006643343 2.3352324757756002 1.8354624263723551 2.322073797876883 L 1.852776476239088 2.283117185676734 L 1.8390983768443685 2.3235671346778886 C 1.834899719751686 2.3371153786986074 1.8292293684203307 2.350165843785657 1.8262859799429862 2.36399544111671 L 1.8177588103836204 2.4054842331098687 L 1.8135385107286044 2.4261095950136147 L 1.8120451739275987 2.447146165601695 L 1.8091450705749206 2.4888946683428546 L 1.8119586036782647 2.530470030585347 C 1.8127902514969796 2.5442476444981015 1.8149648191683292 2.557911178033084 1.8184513723782894 2.5712662605838363 C 1.8206101052207837 2.5847983359358904 1.8240449508942378 2.598095681528271 1.8287099469243284 2.610980362465655 C 1.8336228085740145 2.6237711168047038 1.8369124780486938 2.6369514372657545 1.8430156806267168 2.6492660552334684 L 1.8612603606737868 2.6854091343302726 L 1.883314131691538 2.71953945513007 L 1.9085493593723013 2.751332379197858 C 1.9178556611756703 2.7611797450595623 1.927097035292039 2.7710487534836 1.9366846904057422 2.7805931234726367 C 1.9469432649517813 2.7894016463423372 1.9563794221291506 2.7990758717053743 1.967157418171192 2.8071918325804055 C 1.977610775778232 2.8156757170151043 1.9883238441332727 2.8237267502031353 1.999469763734982 2.8311285065211633 C 2.010053679136151 2.8383618988998176 2.0210445814668057 2.844981009047668 2.032388101044108 2.8509530936185725 L 2.0510656323378464 2.8605407487322765 L 2.048295384359169 2.8837199329913648 L 2.0235146504874075 3.09073104171049 Z" fill="#212245" transform="matrix(1,0,0,1,0,0)" fill-rule="nonzero"></path></g><g clip-path="url(#SvgjsClipPath1000f8d788a5-52d6-4502-9644-1931d7c8fda8)"><path d=" M 1.765405452099087 2.8781577944716767 C 1.656673218936004 2.8781577944716767 1.6204002844651988 2.8505202423719047 1.6152277120675125 2.8460618745312205 L 1.633407464427582 2.8250902316301403 L 1.6507215142943148 2.803447669296724 C 1.6513275060396506 2.8039021631057257 1.7138961537455564 2.8468842918998907 1.9434588124161014 2.803447669296724 L 1.9537606720868075 2.8580085689392662 C 1.8917342875864391 2.870538479548862 1.8286787261464363 2.877283823418866 1.7654054520990883 2.8781577944716763 Z" fill="#212245" transform="matrix(1,0,0,1,0,0)" fill-rule="nonzero"></path></g><g clip-path="url(#SvgjsClipPath1000f8d788a5-52d6-4502-9644-1931d7c8fda8)"><path d=" M 1.1832854530171932 2.759426697510556 C 0.7883519755570157 2.6389858381250955 0.712689577639393 2.3467896040616445 0.7096596189127148 2.33441005840693 L 0.7913170065966939 2.314239190312186 C 0.793979041763704 2.3247791181685598 0.8607247039999594 2.5731058783821763 1.2078281187032873 2.678981293317248 Z" fill="#212245" transform="matrix(1,0,0,1,0,0)" fill-rule="nonzero"></path></g><g clip-path="url(#SvgjsClipPath1000f8d788a5-52d6-4502-9644-1931d7c8fda8)"><path d=" M 2.4690267961207786 2.3239567007998905 C 2.460673273033144 2.377234221729002 2.4489043204670424 2.4299198029954314 2.4337927046419767 2.4816876950858293 C 2.4189515916956057 2.5343287579620335 2.398739458155752 2.585305107675571 2.3734748834187465 2.6338132657274085 L 2.3724143978644086 2.6151790195583375 C 2.379495250534653 2.6240382493278416 2.3860013399835167 2.6333419572397165 2.3918927039644826 2.643032997281444 C 2.3976712681075054 2.6523609416471468 2.4028871256298583 2.66201352444785 2.4078649149665443 2.671795962622554 C 2.4176570131771533 2.691401393615752 2.425997362941298 2.711698897031354 2.432818789336973 2.7325249925301187 C 2.446363542510739 2.774487476920029 2.454302963396721 2.818056049646311 2.4564308248427302 2.862099013220282 C 2.458409294541776 2.9062756997433525 2.4552719220453616 2.9505329867645345 2.4470812379146945 2.993988788080119 C 2.443143001173076 3.015718865633942 2.438086349905924 3.0372313048819097 2.4319314442813025 3.0584403387090346 C 2.4258498842656127 3.0796500497957813 2.4185996258839184 3.100448552198194 2.4108515885685553 3.1212037694759402 L 2.3356869695846014 3.0879607937318134 C 2.344343994517968 3.0703004628677455 2.352719666141 3.0524020638180107 2.3599915670850278 3.03409245608394 C 2.367306509021406 3.0158364524415235 2.3736920320304105 2.997221641588352 2.379123592187768 2.978319572950726 C 2.3901850942245875 2.940558965768347 2.3968518215472985 2.9016479363619334 2.3989914644098436 2.8623587239682835 C 2.4009712556865996 2.822881238709933 2.3977256345254543 2.783315224689428 2.3893388816091403 2.7446881125614997 C 2.385049981428692 2.7253171737971913 2.3793499955812183 2.7062858758724415 2.3722845424904087 2.687746531062282 C 2.3686918771430614 2.678505156945913 2.3648611436100464 2.6693503530788782 2.3604893460186966 2.6604769025221775 C 2.356378551030983 2.6518557488585186 2.3517456519936686 2.643493402234225 2.3466164635629765 2.635436457902415 L 2.3399505543642847 2.625134598231709 L 2.345577620570973 2.6168022117333436 C 2.3745932237523117 2.5726189333156393 2.3989968588735846 2.525573946382 2.418404842822918 2.4764069098764736 C 2.438531199670495 2.426728541896021 2.4554401163666375 2.375806605509691 2.469026796120779 2.3239567007998883 Z" fill="#212245" transform="matrix(1,0,0,1,0,0)" fill-rule="nonzero"></path></g><g clip-path="url(#SvgjsClipPath1000f8d788a5-52d6-4502-9644-1931d7c8fda8)"><path d=" M 1.8259829840703186 1.6911065356084696 C 1.8258531286963182 1.7336990982806322 1.7431136128956686 1.7677644913934294 1.6413502848039456 1.7673316401467611 C 1.5395869567122225 1.7668987889000927 1.4570638665349074 1.732054263543293 1.4572153644712411 1.6895482711204637 C 1.4573668624075753 1.6470422786976346 1.5401063782082252 1.612695532274503 1.641977919111615 1.6130850983965044 C 1.7438494600150045 1.613474664518506 1.8261994096936527 1.64853561549864 1.8259829840703186 1.6911065356084696 Z" fill="#64c6c4" transform="matrix(1,0,0,1,0,0)" fill-rule="nonzero"></path></g><g clip-path="url(#SvgjsClipPath1000f8d788a5-52d6-4502-9644-1931d7c8fda8)"><path d=" M 2.272101121449025 1.946835052140114 C 2.246130046648926 1.992500858663622 2.1363156853691723 1.9789742572052371 2.0269558178984206 1.9165354648733313 C 1.9175959504276692 1.8540966725414256 1.850114441072078 1.7665092227780907 1.876301941495511 1.720800131129916 C 1.9024894419189446 1.6750910394817413 2.0120440924506973 1.6886176409401263 2.1214905301707825 1.7510997183966985 C 2.2309369678908673 1.8135817958532712 2.298245336747792 1.9010177476802723 2.272101121449025 1.946835052140114 Z" fill="#64c6c4" transform="matrix(1,0,0,1,0,0)" fill-rule="nonzero"></path></g><g clip-path="url(#SvgjsClipPath1000f8d788a5-52d6-4502-9644-1931d7c8fda8)"><path d=" M 1.8688352574904823 1.88034910065186 C 1.8659784392624714 1.9067746692609613 1.8124347400496 1.9224871695150212 1.7492817431606915 1.9155399070059946 C 1.686128746271783 1.908592644496968 1.637411338459264 1.8814528713308643 1.6403330843742747 1.8549407324724299 C 1.6432548302892855 1.828428593613995 1.696733601815157 1.812737735922268 1.759821671017065 1.8198148538052952 C 1.8229097402189736 1.826891971688322 1.871778645967827 1.8539668171674255 1.8688352574904823 1.88034910065186 Z" fill="#64c6c4" transform="matrix(1,0,0,1,0,0)" fill-rule="nonzero"></path></g><g clip-path="url(#SvgjsClipPath1000f8d788a5-52d6-4502-9644-1931d7c8fda8)"><path d=" M 1.4063553429877131 0.4130699446955801 C 1.385015776526965 0.4259039841592959 1.3430075630378042 0.39482526464851037 1.3124482650230207 0.34381374522864855 C 1.281888967008237 0.29280222580878673 1.274292427629208 0.24105485926958875 1.2956319940899563 0.22826410493053986 C 1.3169715605507044 0.21547335059149092 1.3590447017268654 0.2464654998529428 1.3896689274286493 0.29752030439747146 C 1.4202931531304333 0.34857510894200017 1.427716552010795 0.4002575477941978 1.4063553429877131 0.4130699446955801 Z" fill="#64c6c4" transform="matrix(1,0,0,1,0,0)" fill-rule="nonzero"></path></g><g clip-path="url(#SvgjsClipPath1000f8d788a5-52d6-4502-9644-1931d7c8fda8)"><path d=" M 1.484095426889344 0.7063915920003689 C 1.4536443416862275 0.7103954660320511 1.4211372130614364 0.6545792977741708 1.4114629876983995 0.5816438627105585 C 1.4017887623353629 0.5087084276469461 1.418778173767094 0.4463345630020409 1.449294186657211 0.4423739740950257 C 1.479810199547328 0.4384133851880106 1.512274043047452 0.49412134063422364 1.5219482684104888 0.5671000608225027 C 1.5316224937735259 0.640078781010782 1.5146547249041278 0.7023227902816868 1.484095426889344 0.7063915920003689 Z" fill="#64c6c4" transform="matrix(1,0,0,1,0,0)" fill-rule="nonzero"></path></g><g clip-path="url(#SvgjsClipPath1000f8d788a5-52d6-4502-9644-1931d7c8fda8)"><path d=" M 1.3661218196098928 0.5277755250626855 C 1.3527467160878415 0.5357399880013828 1.3265375731020745 0.5164131798376422 1.307470475686335 0.48449040039585334 C 1.2884033782705955 0.4525676209540646 1.2836636571195772 0.4203634882019414 1.2970820457662953 0.4123990252632443 C 1.3105004344130133 0.40443456232454716 1.3365797220247797 0.42369644280128743 1.3557117471275195 0.4555759371184095 C 1.3748437722302596 0.4874554314355315 1.3794319954449437 0.5197461344369884 1.3661218196098928 0.5277755250626855 Z" fill="#64c6c4" transform="matrix(1,0,0,1,0,0)" fill-rule="nonzero"></path></g><g clip-path="url(#SvgjsClipPath1000f8d788a5-52d6-4502-9644-1931d7c8fda8)"><path d=" M 3.512263228278436 3.1961086777118934 L 1.7561424354203845 3.2023633782262504 L 0 3.1961086777118934 L 0 3.183620919245512 L 0.039454391133817594 3.177885640227157 C 0.06516575518591597 3.1744228302538104 0.10288874133306025 3.167865133866785 0.15091358715091066 3.162541063532765 C 0.19893843296876104 3.156827427076743 0.2572434958949841 3.1491876025730474 0.3240540858182397 3.1430627574326904 C 0.3909512459908289 3.1362669928599978 0.466418860847451 3.1285189555446347 0.5487255254014325 3.1227403914016127 L 0.6771308477255903 3.1126765999165737 C 0.7214981005090934 3.109127219693894 0.7673803326559355 3.1072876018955538 0.8145394759804493 3.104387498542876 C 0.9088577626294767 3.099214926145189 1.0083486216761908 3.092592302071164 1.1112373630092511 3.090060122278154 L 1.267951156865517 3.0847144093818 C 1.320888864333053 3.0827016510847924 1.3744974912329249 3.081013531222786 1.4285173268171312 3.080862033286452 L 1.7560775077333846 3.077161155127438 L 2.083616046087304 3.0807538204747846 C 2.1106259638794076 3.0810712447223416 2.1375276688598435 3.081381454782454 2.164321161028613 3.0816844506551218 L 2.244182216038918 3.084433056071466 L 2.4008960098951846 3.089800411530153 C 2.503784751228245 3.092397519010163 2.603253967712625 3.0987387897738543 2.6975722543616527 3.1040845026702075 C 2.7447530402485 3.106962963460552 2.7906352723953423 3.108954079195226 2.835002525178845 3.112330318919239 L 2.9634078475030026 3.1224590380912773 C 3.0456495843699845 3.1283025299213 3.1212037694759394 3.1359423544249956 3.188079287086196 3.1428463318093556 C 3.2549548046964514 3.149036104636713 3.3132598676226745 3.156632644015742 3.3612197857535246 3.1624328507210975 C 3.409244631571375 3.167778563617451 3.4469892602808527 3.17435790256681 3.4727222668952837 3.1778423551024892 C 3.4984552735097156 3.1813268076381696 3.5121550154667687 3.183620919245511 3.5121550154667687 3.183620919245511 Z" fill="#212245" transform="matrix(1,0,0,1,0,0)" fill-rule="nonzero"></path></g><g clip-path="url(#SvgjsClipPath1000f8d788a5-52d6-4502-9644-1931d7c8fda8)"><path d=" M 0.7625756838179173 0.4248002134802918 C 0.7626194508876739 0.5281123677024793 0.700413613386052 0.6212740470245872 0.6049739966831483 0.6608301172186262 C 0.5095343799802445 0.7003861874126651 0.39966369204440083 0.6785436453010444 0.3266109606594762 0.6054909139161404 C 0.2535582292745515 0.5324381825312363 0.23171568716289984 0.4225674945953987 0.27127175735691195 0.3271278778924838 C 0.3108278275509239 0.23168826118956892 0.40398950687301427 0.16948242368792088 0.507301661095238 0.16952619075764844 C 0.5750063011157156 0.16952044991393075 0.6399395832522198 0.19641347082664337 0.687813993500571 0.2442878810749946 C 0.7356884037489223 0.2921622913233458 0.7625814246616349 0.35709557345985 0.7625756838179173 0.4248002134802917 Z" fill="#dceac6" transform="matrix(1,0,0,1,0,0)" fill-rule="nonzero"></path></g><g clip-path="url(#SvgjsClipPath1000f8d788a5-52d6-4502-9644-1931d7c8fda8)"><path d=" M 0.5073016610952741 0.6921507859849811 C 0.35965997061141586 0.6921627383582046 0.23996304303856758 0.572485189672699 0.23995109034278217 0.4248434991888668 C 0.23993913764699687 0.2772018087050348 0.35961668607099323 0.15750488087071962 0.5072583765547992 0.15749292785237232 C 0.6549000670386051 0.15748097483402504 0.7745969951343873 0.27715852299651217 0.7746089484752965 0.4248002134802919 C 0.774430122582355 0.5723628273896448 0.654864244115323 0.6919480671842566 0.5073016610952743 0.6921507859849811 Z M 0.5073016610952741 0.18155945541502794 C 0.4089072659952699 0.18155070185462718 0.32019695626113803 0.24081647452376445 0.2825390076893765 0.331719367619018 C 0.24488105911761504 0.42262226071427167 0.26569218212281803 0.5272590038901644 0.33526752640410973 0.5968343481714561 C 0.4048428706854014 0.6664096924527477 0.5094796138612943 0.6872208154579508 0.6003825069565478 0.6495628668861892 C 0.6912854000518013 0.6119049183144277 0.7505511727209385 0.5231946085802959 0.7505424191605379 0.4248002134802918 C 0.7503754771099841 0.2905312627196299 0.6415706118559199 0.1817263974655729 0.5073016610952661 0.18155945541502783 Z" fill="#212245" transform="matrix(1,0,0,1,0,0)" fill-rule="nonzero"></path></g><g clip-path="url(#SvgjsClipPath1000f8d788a5-52d6-4502-9644-1931d7c8fda8)"><path d=" M 0.717364371103411 0.4319855441749859 C 0.7173906345007285 0.4916734860027686 0.6814556970588432 0.5454987717841852 0.6263187654095229 0.5683585586971269 C 0.5711818337602027 0.5912183456100688 0.5077034349749249 0.5786098561660235 0.46548839593328817 0.5364133922369213 C 0.4232733568916515 0.49421692830781905 0.4106369312833458 0.4307440847741541 0.4334724497479204 0.3755970976772963 C 0.45630796821249503 0.32045011058043854 0.5101174335082265 0.2844914876508708 0.5698053811141451 0.284491481872755 C 0.6089327280715542 0.2844800004223652 0.6464617656484559 0.3000137493550436 0.6741350668217441 0.3276748739511069 C 0.7018083679950322 0.3553359985471701 0.7173586322731922 0.3928581959539236 0.717364371103411 0.431985544174986 Z" fill="#212245" transform="matrix(1,0,0,1,0,0)" fill-rule="nonzero"></path></g><g clip-path="url(#SvgjsClipPath1000f8d788a5-52d6-4502-9644-1931d7c8fda8)"><path d=" M 0.56201405867415 0.38127702062779195 C 0.562022812802869 0.4138423782669987 0.5424126514433302 0.44320600836569357 0.5123286962336112 0.4556742974923011 C 0.48224474102389225 0.4681425866189087 0.4476122627291815 0.4612598075082208 0.4245819814188558 0.43823571713373866 C 0.40155170010853003 0.41521162675925644 0.3946596101892708 0.3805810001743249 0.407119810693544 0.3504936939107463 C 0.41958001119781707 0.3204063876471678 0.4489383679779789 0.3007883324864528 0.4815037267938289 0.30078833130981736 C 0.5259599047199314 0.30078832970355585 0.562002108088686 0.33682084430796405 0.5620140586741499 0.38127702062779195 Z" fill="#dceac6" transform="matrix(1,0,0,1,0,0)" fill-rule="nonzero"></path></g><g clip-path="url(#SvgjsClipPath1000f8d788a5-52d6-4502-9644-1931d7c8fda8)"><path d=" M 1.2230211974613452 0.4411836331666878 C 1.2230474596048653 0.5564919486221717 1.1536076163837226 0.660460866344238 1.0470841604490553 0.7046056467670456 C 0.9405607045143881 0.7487504271898531 0.817933859331747 0.7243765781005677 0.7363892798328828 0.6428505708562762 C 0.6548447003340183 0.5613245636119847 0.6304429197158614 0.4387032735293159 0.6745634348909508 0.3321697649814059 C 0.7186839500660402 0.22563625643349589 0.8226370479597611 0.15617273278854135 0.9379453664057559 0.1561727297979308 C 1.0135444473870678 0.15616124908168483 1.0860514312932752 0.18618333826971972 1.1395141425989879 0.2396338731304037 C 1.1929768539047003 0.2930844079910877 1.2230154580839026 0.36558455153132186 1.223021197461345 0.4411836331666878 Z" fill="#dceac6" transform="matrix(1,0,0,1,0,0)" fill-rule="nonzero"></path></g><g clip-path="url(#SvgjsClipPath1000f8d788a5-52d6-4502-9644-1931d7c8fda8)"><path d=" M 0.9379453664055881 0.7396345677444961 C 0.7731239233680829 0.739598711012022 0.6395354594649948 0.60596180266299 0.6395593626533164 0.44114035745846464 C 0.6395832658416379 0.27631891225393906 0.7732104854421323 0.14272075679168889 0.9380319319467569 0.14273270643573252 C 1.1028533784513814 0.14274465607977613 1.2364612247700992 0.2763621862288854 1.2364612286703967 0.4411836331666878 C 1.2362703397472075 0.605959744742925 1.1027215156066419 0.7394795217963983 0.9379453664056008 0.7396345677444961 Z M 0.9379453664055881 0.1696127610069821 C 0.787954602365015 0.1696486187069501 0.6663898970860787 0.29126499953343526 0.6664177849267443 0.4412557652675893 C 0.66644567276741 0.5912465310017434 0.7880555940005427 0.7128176982765482 0.9380463610047938 0.7127977802952637 C 1.088037128009045 0.7127778623139791 1.2096147569364746 0.5911744010175524 1.2096028088146273 0.44118363316668785 C 1.209423835525265 0.29123958328631977 1.0878894657131608 0.1697439433562412 0.9379453664055938 0.16961276100698217 Z" fill="#212245" transform="matrix(1,0,0,1,0,0)" fill-rule="nonzero"></path></g><g clip-path="url(#SvgjsClipPath1000f8d788a5-52d6-4502-9644-1931d7c8fda8)"><path d=" M 1.1724858144128185 0.4491913812300517 C 1.172494568270872 0.5158169946517758 1.1323670036150866 0.5758870880837752 1.0708154753237722 0.6013896723732001 C 1.0092639470324574 0.626892256662625 0.9384107256870005 0.6128047233403909 0.8912962071713917 0.5656963951437961 C 0.8441816886557831 0.5185880669472014 0.8300848455254216 0.4477366972787797 0.8555793418833233 0.3861818185453059 C 0.8810738382412249 0.3246269398118321 0.9411386584966154 0.2844914824477878 1.0077642724933038 0.28449148187275497 C 1.0987240681073314 0.2845034282598956 1.1724619161441412 0.35823158797085636 1.1724858144128187 0.4491913812300517 Z" fill="#212245" transform="matrix(1,0,0,1,0,0)" fill-rule="nonzero"></path></g><g clip-path="url(#SvgjsClipPath1000f8d788a5-52d6-4502-9644-1931d7c8fda8)"><path d=" M 1.0038036835861734 0.3926393658528354 C 1.0037917306466797 0.44226199197619354 0.9635591797312373 0.48248162351548246 0.9139365523282519 0.48247763920227965 C 0.8643139249252666 0.48247365488907673 0.8240878331792427 0.44224756314304314 0.824083848866052 0.3926249357400578 C 0.8240798645528613 0.3430023083370724 0.86429949609216 0.3027697574216397 0.9139221222155073 0.30275780448215817 C 0.9635623378515017 0.30275780448215817 1.0038036835861734 0.3429991502168298 1.0038036835861734 0.3926393658528354 Z" fill="#dceac6" transform="matrix(1,0,0,1,0,0)" fill-rule="nonzero"></path></g><g clip-path="url(#SvgjsClipPath1000f8d788a5-52d6-4502-9644-1931d7c8fda8)"><path d=" M 0.8707235677979975 1.5712716679683443 L 1.0286493451449352 1.5915507488747551 L 0.8707235677979975 1.6118514723434993 L 0.8707235677979975 1.5712716679683443 Z" fill="#212245" transform="matrix(1,0,0,1,0,0)" fill-rule="nonzero"></path></g><g clip-path="url(#SvgjsClipPath1000f8d788a5-52d6-4502-9644-1931d7c8fda8)"><path d=" M 0.8133491350521116 1.6789434155770893 L 1.0071799233101861 1.6992441390458335 L 0.8133491350521116 1.7195232199522446 L 0.8133491350521116 1.6789434155770893 Z" fill="#212245" transform="matrix(1,0,0,1,0,0)" fill-rule="nonzero"></path></g><g clip-path="url(#SvgjsClipPath1000f8d788a5-52d6-4502-9644-1931d7c8fda8)"><path d=" M 0.7630734627515858 1.800942539450556 L 0.971231627274382 1.8212432629193003 L 0.7630734627515858 1.8415223438257111 L 0.7630734627515858 1.800942539450556 Z" fill="#212245" transform="matrix(1,0,0,1,0,0)" fill-rule="nonzero"></path></g><g clip-path="url(#SvgjsClipPath1000f8d788a5-52d6-4502-9644-1931d7c8fda8)"><path d=" M 0.720026406270421 1.9732389781868822 L 0.9856455737884372 1.9935397016556262 L 0.720026406270421 2.013818782562037 L 0.720026406270421 1.9732389781868822 Z" fill="#212245" transform="matrix(1,0,0,1,0,0)" fill-rule="nonzero"></path></g><g clip-path="url(#SvgjsClipPath1000f8d788a5-52d6-4502-9644-1931d7c8fda8)"><path d=" M 0.7272117369651153 2.2172588684961485 L 1.0143652540048804 2.2375379494025593 L 0.7272117369651153 2.257838672871304 L 0.7272117369651153 2.2172588684961485 Z" fill="#212245" transform="matrix(1,0,0,1,0,0)" fill-rule="nonzero"></path></g><g clip-path="url(#SvgjsClipPath1000f8d788a5-52d6-4502-9644-1931d7c8fda8)"><path d=" M 0.8779521836173586 2.4886998852818536 L 1.1148300283565982 2.51034244761527 L 0.8779521836173586 2.531985009948686 L 0.8779521836173586 2.4886998852818536 Z" fill="#212245" transform="matrix(1,0,0,1,0,0)" fill-rule="nonzero"></path></g></g><g><path d=" M -2.0950426251122374 1.6011816891131252 A 3.8955955984407917 3.8955955984407917 0 0 1 5.696148571769346 1.6011816891131252 A 3.8955955984407917 3.8955955984407917 0 0 1 -2.095042625112238 1.6011816891131252 Z M -2.0450426251122376 1.6011816891131252 A 3.845595598440792 3.845595598440792 0 0 0 5.646148571769347 1.6011816891131252 A 3.845595598440792 3.845595598440792 0 0 0 -2.045042625112237 1.6011816891131252 Z" fill="#212245" fill-rule="nonzero"></path></g><g transform="matrix(0.8524284435679351,-0.5228439046181448,0.5228439046181448,0.8524284435679351,0.29760877585543555,-0.29396452032217546)"><g clip-path="url(#SvgjsClipPath1002)"><path d=" M -0.37195164846741724 -0.47699221388666635 C -0.3597597472605207 -0.47699221388666635 -0.35356581226052064 -0.4853131809556318 -0.342148978639831 -0.5004093837142525 L -0.2275820991570724 -0.6534874338866663 C -0.22138816415707235 -0.6616168359556318 -0.2184860645019 -0.6693565023349421 -0.2184860645019 -0.6776796713004594 C -0.2184860645019 -0.6860006383694249 -0.22138816415707235 -0.693742506645287 -0.2275820991570724 -0.7018697068177008 L -0.342148978639831 -0.8549488579383905 C -0.35356581226052064 -0.8700437395590801 -0.3597597472605207 -0.8783653671970112 -0.37195164846741724 -0.8783653671970112 C -0.3843373165708655 -0.8783653671970112 -0.3905312515708655 -0.8700437395590801 -0.4019480851915551 -0.8549488579383905 L -0.5165156252432793 -0.7018697068177008 C -0.5227084592950034 -0.693742506645287 -0.5256114397087965 -0.6860006383694249 -0.5256114397087965 -0.6776796713004594 C -0.5256114397087965 -0.6693565023349421 -0.5227084592950034 -0.6616168359556318 -0.5165156252432793 -0.6534874338866663 L -0.4019480851915551 -0.5004093837142525 C -0.3905312515708655 -0.4853131809556318 -0.3843373165708655 -0.47699221388666635 -0.37195164846741724 -0.47699221388666635 Z" fill="#212245" transform="matrix(1,0,0,1,0,0)" fill-rule="nonzero"></path></g></g><g transform="matrix(-0.8524284435679351,-0.5228439046181448,-0.5228439046181448,0.8524284435679351,7.007306637605044,1.977797078199368)"><g clip-path="url(#SvgjsClipPath1003)"><path d=" M 3.9730575951245255 -0.4769922138866661 C 3.9852494963314222 -0.4769922138866661 3.9914434313314224 -0.4853131809556316 4.002860264952112 -0.5004093837142523 L 4.1174271444348705 -0.6534874338866661 C 4.12362107943487 -0.6616168359556316 4.126523179090043 -0.6693565023349419 4.126523179090043 -0.6776796713004591 C 4.126523179090043 -0.6860006383694247 4.12362107943487 -0.6937425066452868 4.1174271444348705 -0.7018697068177006 L 4.002860264952112 -0.8549488579383903 C 3.9914434313314224 -0.8700437395590799 3.9852494963314222 -0.878365367197011 3.9730575951245255 -0.878365367197011 C 3.9606719270210773 -0.878365367197011 3.9544779920210775 -0.8700437395590799 3.943061158400388 -0.8549488579383903 L 3.8284936183486638 -0.7018697068177006 C 3.8223007842969396 -0.6937425066452868 3.819397803883146 -0.6860006383694247 3.819397803883146 -0.6776796713004591 C 3.819397803883146 -0.6693565023349419 3.8223007842969396 -0.6616168359556316 3.8284936183486638 -0.6534874338866661 L 3.943061158400388 -0.5004093837142523 C 3.9544779920210775 -0.4853131809556316 3.9606719270210773 -0.4769922138866661 3.9730575951245255 -0.4769922138866661 Z" fill="#212245" transform="matrix(1,0,0,1,0,0)" fill-rule="nonzero"></path></g></g></g><defs><clipPath id="SvgjsClipPath1001"><path d=" M 0 0 h 3.6011059466571087 v 3.202363378226251 h -3.6011059466571087 Z"></path></clipPath><clipPath id="SvgjsClipPath1000f8d788a5-52d6-4502-9644-1931d7c8fda8"><path d=" M 0 0 L 3.6011059466571087 0 L 3.6011059466571087 3.202363378226251 L 0 3.202363378226251 Z"></path></clipPath><clipPath id="SvgjsClipPath1002"><path d=" M -0.6802171657087965 -0.9934690690590802 h 0.6165310344827586 v 0.6385500000000001 h -0.6165310344827586 Z"></path></clipPath><clipPath id="SvgjsClipPath1003"><path d=" M 3.6647920778831464 -0.99346906905908 h 0.6165310344827586 v 0.6385500000000001 h -0.6165310344827586 Z"></path></clipPath></defs></svg>